<?xml version="1.0" encoding="UTF-8" standalone="no"?>
<svg width="13px" height="15px" viewBox="0 0 13 15" version="1.1"
  xmlns="http://www.w3.org/2000/svg"
  xmlns:xlink="http://www.w3.org/1999/xlink">
  <!-- Generator: Sketch 50.2 (55047) - http://www.bohemiancoding.com/sketch -->
  <title>add_to_user</title>
  <desc>Created with Sketch.</desc>
  <defs></defs>
  <g id="Page-1" stroke="none" stroke-width="1" fill="none" fill-rule="evenodd">
    <path d="M6.5,2.292 C5.39817712,2.292 4.5,3.19017712 4.5,4.292 L4.5,5.167 C4.5,6.26882288 5.39817712,7.167 6.5,7.167 C7.60182288,7.167 8.5,6.26882288 8.5,5.167 L8.5,4.292 C8.5,3.19017712 7.60182288,2.292 6.5,2.292 Z M6.5,0.792 C8.43025,0.792 10,2.36175 10,4.292 L10,5.167 C10,7.09725 8.43025,8.667 6.5,8.667 C4.56975,8.667 3,7.09725 3,5.167 L3,4.292 C3,2.36175 4.56975,0.792 6.5,0.792 Z M10.2477143,8.792 C11.8829286,9.325 13,10.5423571 13,12.1107143 L13,13.8964286 C13,14.4487133 12.5522847,14.8964286 12,14.8964286 L1,14.8964286 C0.44771525,14.8964286 0,14.4487133 0,13.8964286 L0,12.1107143 C0,10.5423571 1.11707143,9.325 2.75228571,8.792 C3.74307143,9.69642857 5.05607143,10.2535714 6.5,10.2535714 C7.94392857,10.2535714 9.25692857,9.69642857 10.2477143,8.792 Z M6.5,11.7535714 C5.06017143,11.7535714 3.68570286,11.3154664 2.5272962,10.5229292 C1.85736529,10.915237 1.5,11.4802192 1.5,12.1107143 L1.5,13.3964286 L11.5,13.3964286 L11.5,12.1107143 C11.5,11.4802192 11.1426347,10.915237 10.4727038,10.5229292 C9.31429714,11.3154664 7.93982857,11.7535714 6.5,11.7535714 Z" id="add_to_user" fill="#113750" fill-rule="nonzero"></path>
  </g>
</svg>
